<!-- Generated by IcoMoon.io -->
<svg version="1.1" xmlns="http://www.w3.org/2000/svg" width="60" height="32" viewBox="0 0 60 32">
<title>client6</title>
<rect fill="#fff" x="0" y="0" width="60" height="32"></rect>
<path fill="#afb1b8" d="M30.774 15.107c-0.128-0.184-0.205-0.412-0.205-0.658 0-0.026 0.001-0.051 0.003-0.077l-0 0.003v-1.060c0-0.325 0.067-0.572 0.202-0.741s0.366-0.253 0.693-0.252c0.308 0 0.526 0.072 0.656 0.216 0.141 0.183 0.21 0.408 0.194 0.634v0.249h-0.551v-0.252c0-0.010 0-0.021 0-0.033 0-0.075-0.006-0.15-0.017-0.222l0.001 0.008c-0.009-0.059-0.037-0.11-0.078-0.147l-0-0c-0.049-0.036-0.11-0.058-0.176-0.058-0.008 0-0.016 0-0.024 0.001l0.001-0c-0.007-0.001-0.015-0.001-0.023-0.001-0.070 0-0.135 0.023-0.188 0.062l0.001-0.001c-0.046 0.041-0.079 0.097-0.091 0.16l-0 0.002c-0.016 0.086-0.023 0.174-0.021 0.262v1.287c-0.009 0.124 0.015 0.248 0.070 0.361 0.028 0.038 0.065 0.068 0.109 0.087l0.002 0.001c0.032 0.014 0.070 0.022 0.109 0.022 0.012 0 0.023-0.001 0.034-0.002l-0.001 0c0.007 0.001 0.015 0.001 0.023 0.001 0.065 0 0.125-0.022 0.173-0.059l-0.001 0c0.043-0.040 0.073-0.094 0.082-0.155l0-0.001c0.013-0.085 0.018-0.172 0.017-0.258v-0.261h0.551v0.238c0.001 0.019 0.002 0.042 0.002 0.065 0 0.226-0.072 0.435-0.195 0.605l0.002-0.003c-0.126 0.157-0.342 0.236-0.659 0.236s-0.556-0.084-0.692-0.259zM33.068 15.117c-0.139-0.165-0.209-0.405-0.209-0.724v-1.115c0-0.315 0.070-0.553 0.209-0.715s0.372-0.242 0.698-0.242c0.324 0 0.555 0.081 0.694 0.242s0.21 0.4 0.21 0.715v1.115c0 0.315-0.071 0.556-0.212 0.723s-0.372 0.249-0.692 0.249c-0.32 0-0.557-0.084-0.698-0.248zM34.022 14.85c0.050-0.103 0.073-0.217 0.066-0.33v-1.365c0.001-0.011 0.001-0.024 0.001-0.037 0-0.104-0.024-0.203-0.068-0.29l0.002 0.004c-0.028-0.039-0.066-0.069-0.111-0.088l-0.002-0.001c-0.032-0.014-0.069-0.021-0.107-0.021-0.013 0-0.026 0.001-0.039 0.003l0.001-0c-0.011-0.002-0.024-0.002-0.037-0.002-0.039 0-0.077 0.008-0.11 0.022l0.002-0.001c-0.046 0.019-0.084 0.050-0.113 0.088l-0.001 0.001c-0.042 0.083-0.067 0.181-0.067 0.285 0 0.013 0 0.027 0.001 0.040l-0-0.002v1.372c-0.007 0.114 0.016 0.227 0.066 0.33 0.032 0.034 0.070 0.062 0.114 0.081l0.002 0.001c0.042 0.018 0.090 0.029 0.142 0.029s0.1-0.011 0.144-0.030l-0.002 0.001c0.046-0.020 0.084-0.047 0.116-0.082l0-0v-0.006zM35.332 12.355h0.593l0.446 2.057 0.456-2.057h0.577l0.058 2.97h-0.426l-0.046-2.064-0.44 2.064h-0.342l-0.456-2.071-0.042 2.071h-0.431l0.053-2.97zM38.127 12.355h0.923c0.532 0 0.798 0.281 0.798 0.843 0 0.539-0.28 0.807-0.84 0.807h-0.315v1.32h-0.57l0.004-2.97zM38.916 13.624c0.056 0.006 0.113 0.002 0.168-0.014 0.056-0.017 0.105-0.044 0.146-0.080l-0.001 0c0.053-0.080 0.085-0.178 0.085-0.283 0-0.018-0.001-0.037-0.003-0.055l0 0.002c0-0.009 0.001-0.021 0.001-0.032 0-0.084-0.010-0.166-0.029-0.245l0.001 0.007c-0.009-0.031-0.023-0.059-0.042-0.082l0 0c-0.020-0.024-0.044-0.044-0.071-0.059l-0.001-0.001c-0.066-0.031-0.143-0.048-0.224-0.048-0.011 0-0.021 0-0.031 0.001l0.001-0h-0.221v0.887h0.221zM40.671 12.355h0.612l0.628 2.97h-0.531l-0.124-0.685h-0.546l-0.128 0.685h-0.539l0.628-2.97zM41.194 14.296l-0.213-1.247-0.213 1.247h0.426zM42.419 12.355h0.399l0.764 1.694v-1.694h0.473v2.97h-0.38l-0.768-1.769v1.769h-0.489l0.001-2.97zM45.163 14.192l-0.635-1.833h0.535l0.388 1.178 0.364-1.178h0.523l-0.627 1.834v1.132h-0.547v-1.132zM31.655 16.623v0.155h-0.466v1.207h-0.195v-1.207h-0.468v-0.155h1.127zM33.113 17.985h-0.15c-0.001 0-0.003 0-0.004 0-0.014 0-0.028-0.005-0.038-0.013l0 0c-0.011-0.008-0.020-0.018-0.025-0.031l-0-0-0.135-0.324h-0.645l-0.135 0.324c-0.004 0.014-0.011 0.026-0.020 0.037l0-0c-0.011 0.008-0.024 0.013-0.039 0.013-0.001 0-0.002-0-0.003-0h-0.15l0.57-1.362h0.198l0.577 1.356zM32.169 17.479h0.538l-0.228-0.555c-0.014-0.034-0.029-0.077-0.041-0.121l-0.002-0.007-0.021 0.072-0.021 0.057-0.226 0.554zM34.096 17.851c0.036 0.002 0.071 0.002 0.107 0 0.034-0.003 0.065-0.009 0.095-0.017l-0.004 0.001c0.028-0.006 0.055-0.015 0.082-0.025 0.025-0.010 0.050-0.021 0.076-0.033v-0.306h-0.228c-0.001 0-0.002 0-0.002 0-0.011 0-0.021-0.004-0.028-0.011l0 0c-0.004-0.003-0.007-0.007-0.008-0.011l-0-0c-0.002-0.004-0.003-0.008-0.003-0.013 0-0 0-0.001 0-0.001v0-0.105h0.442v0.522c-0.108 0.074-0.239 0.124-0.379 0.139l-0.004 0c-0.049 0.005-0.106 0.009-0.163 0.009-0.001 0-0.002 0-0.003 0h0c-0.002 0-0.005 0-0.008 0-0.101 0-0.197-0.019-0.285-0.052l0.005 0.002c-0.088-0.034-0.164-0.082-0.228-0.143l0 0c-0.062-0.060-0.111-0.132-0.146-0.212l-0.002-0.004c-0.033-0.081-0.052-0.175-0.052-0.273 0-0.003 0-0.007 0-0.010v0.001c-0-0.003-0-0.006-0-0.009 0-0.099 0.019-0.194 0.053-0.281l-0.002 0.005c0.033-0.081 0.083-0.154 0.147-0.216s0.143-0.109 0.228-0.141c0.098-0.035 0.201-0.052 0.306-0.050 0.053 0 0.106 0.004 0.158 0.012 0.046 0.007 0.092 0.019 0.136 0.035 0.040 0.014 0.078 0.032 0.114 0.054s0.068 0.045 0.1 0.071l-0.055 0.084c-0.004 0.008-0.011 0.014-0.018 0.019l-0 0c-0.007 0.004-0.016 0.007-0.026 0.007h-0c-0.013-0-0.025-0.004-0.036-0.011l0 0c-0.023-0.012-0.041-0.022-0.058-0.034l0.003 0.002c-0.022-0.013-0.047-0.025-0.073-0.035l-0.003-0.001c-0.029-0.012-0.064-0.022-0.101-0.029l-0.004-0.001c-0.042-0.008-0.090-0.012-0.139-0.012-0.002 0-0.004 0-0.006 0h0c-0.002-0-0.004-0-0.006-0-0.077 0-0.15 0.014-0.218 0.039l0.004-0.001c-0.063 0.024-0.121 0.060-0.167 0.108-0.047 0.049-0.084 0.107-0.106 0.169-0.024 0.068-0.038 0.146-0.038 0.227s0.014 0.159 0.040 0.232l-0.002-0.005c0.025 0.064 0.064 0.123 0.114 0.172 0.047 0.047 0.103 0.083 0.166 0.108 0.073 0.023 0.149 0.033 0.226 0.027zM35.914 17.83h0.623v0.155h-0.813v-1.362h0.195l-0.005 1.206zM37.184 17.985h-0.195v-1.362h0.195v1.362zM37.909 16.629c0.012 0.006 0.022 0.015 0.030 0.025l0 0 0.833 1.027c-0.001-0.007-0.001-0.016-0.001-0.024s0-0.017 0.001-0.026l-0 0.001v-1.015h0.17v1.367h-0.098c-0.002 0-0.004 0-0.007 0-0.013 0-0.025-0.003-0.036-0.008l0.001 0c-0.012-0.007-0.022-0.016-0.030-0.026l-0-0-0.832-1.025v1.059h-0.163v-1.362h0.102c0.011 0 0.022 0.002 0.032 0.006zM40.378 16.623v0.15h-0.691v0.449h0.56v0.145h-0.56v0.465h0.691v0.15h-0.891v-1.359h0.891zM19.946 8.212l8.658 2.325v8.147l-8.658-2.324v-8.148zM19.39 7.517v9.238l9.767 2.624v-9.237l-9.767-2.625z"></path>
<path fill="#afb1b8" d="M24.625 23.668l-9.769-2.627v-9.237l9.769 2.625v9.239zM19.552 8.107l8.545 2.296-3.634 3.438-8.546-2.297 3.634-3.437zM19.391 7.517l-4.533 4.287 9.768 2.625 4.532-4.288-9.767-2.625zM25.175 23.148l3.983-3.768-3.983-1.071v4.839z"></path>
</svg>
