<!-- Generated by IcoMoon.io -->
<svg version="1.1" xmlns="http://www.w3.org/2000/svg" width="60" height="32" viewBox="0 0 60 32">
<title>client3</title>
<rect fill="#fff" x="0" y="0" width="60" height="32"></rect>
<path fill="#afb1b8" d="M25.52 23.083c0.011 0 0.021 0.005 0.028 0.012v0l0.073 0.076c-0.057 0.062-0.127 0.112-0.206 0.146-0.092 0.037-0.192 0.054-0.292 0.052-0.004 0-0.009 0-0.014 0-0.094 0-0.184-0.018-0.266-0.051l0.005 0.002c-0.159-0.064-0.281-0.189-0.339-0.346l-0.001-0.004c-0.030-0.078-0.047-0.169-0.047-0.264 0-0.003 0-0.006 0-0.010v0c-0-0.003-0-0.006-0-0.009 0-0.095 0.019-0.186 0.052-0.269l-0.002 0.005c0.032-0.079 0.080-0.151 0.142-0.213 0.063-0.060 0.137-0.107 0.22-0.139 0.090-0.033 0.186-0.050 0.283-0.048 0.090-0.002 0.179 0.013 0.262 0.044 0.073 0.030 0.139 0.071 0.197 0.123l-0.061 0.082c-0.004 0.006-0.010 0.011-0.015 0.015l-0 0c-0.006 0.004-0.013 0.006-0.021 0.006-0.001 0-0.003-0-0.004-0h0c-0.010-0.001-0.019-0.004-0.027-0.009l0 0-0.033-0.022-0.046-0.028c-0.042-0.022-0.090-0.039-0.142-0.048l-0.003-0c-0.031-0.006-0.066-0.009-0.102-0.009-0.002 0-0.005 0-0.007 0h0c-0.002-0-0.004-0-0.007-0-0.071 0-0.138 0.013-0.2 0.038l0.004-0.001c-0.060 0.023-0.114 0.058-0.159 0.103-0.046 0.047-0.081 0.103-0.103 0.164-0.024 0.062-0.038 0.134-0.038 0.209 0 0.003 0 0.005 0 0.008v-0c-0.001 0.075 0.012 0.149 0.038 0.219 0.022 0.060 0.057 0.116 0.102 0.163 0.042 0.044 0.094 0.079 0.152 0.101 0.060 0.024 0.124 0.036 0.188 0.035 0.037 0.001 0.075-0.002 0.112-0.007 0.060-0.007 0.118-0.027 0.169-0.058 0.026-0.016 0.050-0.034 0.073-0.054 0.009-0.008 0.021-0.014 0.034-0.014h0zM27.634 22.698c0.001 0.092-0.016 0.184-0.050 0.271-0.032 0.082-0.079 0.153-0.137 0.21l-0 0c-0.061 0.060-0.135 0.107-0.216 0.138-0.083 0.031-0.178 0.049-0.278 0.049s-0.195-0.018-0.284-0.051l0.006 0.002c-0.084-0.033-0.155-0.080-0.215-0.139l0 0c-0.059-0.059-0.106-0.13-0.138-0.208l-0.001-0.004c-0.031-0.081-0.049-0.174-0.049-0.271s0.018-0.191 0.051-0.277l-0.002 0.005c0.031-0.079 0.078-0.151 0.139-0.213 0.061-0.058 0.134-0.103 0.215-0.133 0.083-0.031 0.178-0.050 0.278-0.050s0.196 0.018 0.284 0.052l-0.006-0.002c0.081 0.032 0.155 0.079 0.216 0.139s0.107 0.132 0.138 0.21c0.034 0.087 0.050 0.18 0.049 0.273zM27.442 22.698c0-0.003 0-0.007 0-0.011 0-0.074-0.013-0.145-0.037-0.211l0.001 0.004c-0.041-0.122-0.133-0.218-0.25-0.265l-0.003-0.001c-0.060-0.023-0.13-0.036-0.202-0.036s-0.142 0.013-0.206 0.037l0.004-0.001c-0.12 0.047-0.212 0.143-0.253 0.263l-0.001 0.003c-0.022 0.065-0.035 0.14-0.035 0.218s0.013 0.153 0.036 0.223l-0.001-0.005c0.042 0.122 0.134 0.218 0.251 0.264l0.003 0.001c0.13 0.046 0.274 0.046 0.404 0 0.059-0.023 0.112-0.058 0.155-0.102 0.044-0.048 0.077-0.103 0.098-0.163 0.022-0.061 0.035-0.132 0.035-0.205 0-0.005-0-0.009-0-0.014v0.001zM29.076 22.926l0.019 0.049c0.007-0.018 0.014-0.033 0.021-0.049 0.008-0.019 0.016-0.035 0.025-0.050l-0.001 0.002 0.468-0.809c0.009-0.014 0.017-0.023 0.027-0.025s0.020-0.004 0.032-0.004c0.002 0 0.005 0 0.007 0h0.138v1.316h-0.164v-1.009c-0-0.007-0.001-0.015-0.001-0.023s0-0.016 0.001-0.024l-0 0.001-0.47 0.821c-0.006 0.013-0.016 0.023-0.027 0.030l-0 0c-0.011 0.007-0.025 0.011-0.039 0.011-0 0-0.001 0-0.001 0h-0.026c-0.014 0-0.028-0.004-0.041-0.011s-0.021-0.017-0.027-0.029l-0-0-0.484-0.826v1.057h-0.159v-1.313h0.138c0.002-0 0.004-0 0.007-0 0.011 0 0.022 0.002 0.032 0.005l-0.001-0c0.011 0.005 0.020 0.014 0.025 0.025l0 0 0.478 0.811c0.009 0.013 0.017 0.029 0.023 0.045l0.001 0.002zM30.836 22.861v0.493h-0.183v-1.314h0.408c0.077-0.001 0.154 0.009 0.228 0.029 0.059 0.016 0.114 0.044 0.161 0.082 0.041 0.036 0.072 0.080 0.092 0.129 0.021 0.053 0.032 0.111 0.031 0.168 0.001 0.058-0.011 0.115-0.034 0.168-0.023 0.052-0.057 0.096-0.098 0.131l-0.001 0c-0.046 0.038-0.1 0.068-0.159 0.086l-0.003 0.001c-0.071 0.021-0.146 0.032-0.22 0.030l-0.221-0.004zM30.836 22.72h0.221c0.048 0 0.096-0.006 0.142-0.020 0.039-0.013 0.074-0.032 0.103-0.057l-0 0c0.027-0.023 0.048-0.053 0.062-0.086l0.001-0.002c0.014-0.032 0.022-0.069 0.022-0.107 0-0.001 0-0.002-0-0.003v0c0-0.004 0-0.009 0-0.014 0-0.034-0.007-0.066-0.019-0.095l0.001 0.002c-0.015-0.035-0.037-0.065-0.064-0.090l-0-0c-0.060-0.045-0.136-0.071-0.218-0.071-0.010 0-0.020 0-0.029 0.001l0.001-0h-0.221v0.542zM33.296 23.356h-0.145c-0.001 0-0.002 0-0.003 0-0.014 0-0.027-0.005-0.038-0.012l0 0c-0.010-0.008-0.018-0.018-0.024-0.030l-0-0-0.124-0.318h-0.625l-0.129 0.318c-0.005 0.012-0.013 0.022-0.023 0.029l-0 0c-0.011 0.008-0.024 0.013-0.039 0.013-0.001 0-0.002 0-0.002-0h-0.145l0.549-1.316h0.191l0.556 1.316zM32.389 22.867h0.516l-0.218-0.536c-0.015-0.034-0.029-0.075-0.040-0.117l-0.001-0.006-0.021 0.069c-0.007 0.023-0.014 0.042-0.022 0.060l0.002-0.004-0.216 0.535zM34.086 22.046c0.011 0.006 0.020 0.014 0.027 0.023l0.801 0.992v-1.022h0.164v1.316h-0.091c-0.001 0-0.002 0-0.002 0-0.013 0-0.025-0.003-0.035-0.008l0.001 0c-0.011-0.006-0.021-0.015-0.029-0.024l-0-0-0.8-0.991c0.001 0.015 0.001 0.030 0 0.046v0.978h-0.164v-1.316h0.097c0.011 0 0.023 0.002 0.033 0.006zM36.427 22.832v0.523h-0.183v-0.523l-0.506-0.793h0.164c0.014-0.001 0.028 0.004 0.039 0.011 0.010 0.008 0.018 0.018 0.025 0.029l0 0.001 0.316 0.511c0.021 0.033 0.040 0.072 0.054 0.112l0.001 0.004 0.024-0.057c0.009-0.021 0.019-0.041 0.031-0.060l0.312-0.515c0.007-0.011 0.015-0.020 0.024-0.028l0-0c0.010-0.008 0.023-0.013 0.037-0.013 0.001 0 0.002 0 0.003 0h0.166l-0.507 0.796zM28.985 19.831c0.080 0.010 0.16 0.018 0.242 0.025 1.235-0.526 2.279-1.386 3.003-2.474s1.095-2.354 1.066-3.642l-1.361-1.295c0.277 1.371 0.147 2.788-0.374 4.092s-1.413 2.445-2.576 3.295z"></path>
<path fill="#afb1b8" d="M28.499 19.771l0.037 0.007c1.243-0.846 2.191-2.028 2.721-3.393 0.3-0.747 0.474-1.613 0.474-2.519 0-0.619-0.081-1.219-0.233-1.79l0.011 0.048-1.938-1.845c0.607 1.144 0.963 2.502 0.963 3.943 0 0.335-0.019 0.666-0.057 0.991l0.004-0.040c-0.189 1.68-0.876 3.275-1.98 4.598zM35.073 15.26c-0.329 1.414-1.129 2.69-2.281 3.637-0.318 0.265-0.672 0.51-1.048 0.722l-0.036 0.019c0.975-0.276 1.819-0.743 2.526-1.362l-0.008 0.006c0.701-0.612 1.255-1.373 1.616-2.235l0.015-0.040-0.786-0.747z"></path>
<path fill="#afb1b8" d="M34.764 15.052l-1.119-1.065c-0.025 1.281-0.414 2.466-1.066 3.462l0.015-0.025c-0.666 1.036-1.612 1.883-2.739 2.453h0.005c0.251 0 0.502-0.014 0.751-0.043 1.076-0.422 1.984-1.068 2.701-1.887l0.007-0.008c0.695-0.793 1.2-1.769 1.436-2.846l0.008-0.043zM28.661 9.5l-1.335-1.273c-1.194 0.439-2.22 1.211-2.945 2.214s-1.115 2.192-1.119 3.41c0.004 1.346 0.48 2.652 1.352 3.711s2.091 1.812 3.462 2.138c1.225-1.42 1.941-3.175 2.047-5.009s-0.407-3.653-1.462-5.191zM37.849 14.857c-0.005-1.596-0.673-3.127-1.86-4.256s-2.794-1.765-4.471-1.77c-0.775-0.001-1.544 0.135-2.267 0.401l8.175 7.781c0.267-0.637 0.423-1.377 0.423-2.154 0-0.001 0-0.002 0-0.003v0z"></path>
</svg>
