<!-- Generated by IcoMoon.io -->
<svg version="1.1" xmlns="http://www.w3.org/2000/svg" width="60" height="32" viewBox="0 0 60 32">
<title>client4</title>
<rect fill="#fff" x="0" y="0" width="60" height="32"></rect>
<path fill="#2196f3" d="M20.603 12.788h-0.001c-0.805 0-1.457 0.635-1.457 1.419v0.001c0 0.784 0.652 1.419 1.457 1.419h0.001c0.805 0 1.458-0.635 1.458-1.419v-0.001c0-0.784-0.653-1.419-1.458-1.419zM31.36 12.335c-0.002-1.088-0.447-2.132-1.237-2.901s-1.862-1.203-2.98-1.205c-1.118 0.002-2.19 0.435-2.981 1.205s-1.236 1.813-1.238 2.902v6.002s8.436-0.915 8.437-6.001v-0.001zM16.191 20.306c0.004 0.792 0.333 1.507 0.861 2.018l0.001 0.001c0.536 0.519 1.267 0.839 2.073 0.84h0c0.806-0.001 1.537-0.321 2.074-0.84l-0.001 0.001c0.528-0.511 0.858-1.226 0.862-2.017v-4.178s-5.87 0.637-5.87 4.175zM19.126 21.055c-0.152 0-0.301-0.044-0.427-0.126s-0.223-0.196-0.282-0.331l-0.002-0.005c-0.037-0.084-0.058-0.183-0.058-0.286 0-0.052 0.005-0.102 0.016-0.151l-0.001 0.005c0.029-0.145 0.103-0.278 0.21-0.383 0.105-0.102 0.239-0.174 0.388-0.204l0.005-0.001c0.149-0.029 0.304-0.014 0.444 0.043s0.26 0.153 0.345 0.276c0.081 0.116 0.13 0.261 0.13 0.417 0 0.103-0.021 0.202-0.060 0.291l0.002-0.005c-0.038 0.091-0.095 0.174-0.166 0.244s-0.156 0.125-0.25 0.163c-0.087 0.036-0.188 0.057-0.295 0.057-0 0-0 0-0 0v0-0.003zM25.116 20.591h-0.6v0.62h-0.313v-1.516h0.988v0.253h-0.675v0.391h0.6v0.252zM26.619 20.487c0 0.149-0.026 0.28-0.079 0.393s-0.129 0.199-0.228 0.26c-0.093 0.058-0.205 0.092-0.326 0.092-0.004 0-0.008-0-0.012-0h0.001c-0.126 0-0.238-0.030-0.337-0.091-0.1-0.063-0.178-0.15-0.227-0.255l-0.002-0.004c-0.052-0.11-0.083-0.239-0.083-0.375 0-0.004 0-0.009 0-0.013v0.001-0.075c0-0.149 0.027-0.281 0.080-0.394s0.13-0.201 0.228-0.261c0.099-0.061 0.211-0.092 0.337-0.092s0.238 0.031 0.336 0.092c0.099 0.060 0.175 0.148 0.228 0.261s0.081 0.244 0.081 0.393v0.068zM26.302 20.418c0-0.159-0.028-0.28-0.085-0.363-0.051-0.075-0.135-0.124-0.232-0.124-0.004 0-0.009 0-0.013 0l0.001-0c-0.004-0-0.008-0-0.012-0-0.096 0-0.18 0.048-0.23 0.122l-0.001 0.001c-0.057 0.081-0.086 0.201-0.086 0.358v0.074c0 0.155 0.028 0.275 0.085 0.361s0.139 0.128 0.246 0.128c0.004 0 0.008 0 0.012 0 0.095 0 0.18-0.049 0.229-0.122l0.001-0.001c0.056-0.082 0.085-0.203 0.085-0.36v-0.074zM27.632 20.813c0-0.003 0-0.006 0-0.009 0-0.051-0.024-0.097-0.062-0.126l-0-0c-0.042-0.032-0.117-0.065-0.225-0.1-0.1-0.031-0.185-0.066-0.266-0.108l0.009 0.004c-0.172-0.093-0.259-0.218-0.259-0.376 0-0.082 0.023-0.155 0.069-0.219 0.047-0.064 0.113-0.115 0.199-0.151s0.184-0.054 0.292-0.054c0.108 0 0.205 0.020 0.29 0.059s0.15 0.094 0.197 0.166c0.047 0.071 0.071 0.153 0.071 0.244h-0.313c0-0.069-0.021-0.123-0.065-0.161s-0.105-0.058-0.184-0.058c-0.076 0-0.136 0.016-0.178 0.049-0.039 0.028-0.064 0.073-0.064 0.124 0 0.001 0 0.002 0 0.003v-0c0 0.049 0.025 0.091 0.074 0.124s0.123 0.065 0.22 0.094c0.178 0.053 0.307 0.12 0.389 0.199s0.122 0.178 0.122 0.295c0 0.132-0.050 0.235-0.149 0.309s-0.233 0.112-0.401 0.112c-0.117 0-0.223-0.021-0.319-0.064-0.090-0.038-0.164-0.099-0.219-0.174l-0.001-0.002c-0.047-0.070-0.075-0.156-0.075-0.249 0-0.003 0-0.007 0-0.010v0h0.313c0 0.167 0.1 0.251 0.3 0.251 0.074 0 0.132-0.015 0.174-0.044 0.038-0.027 0.063-0.072 0.063-0.121 0-0.002-0-0.004-0-0.006v0zM29.3 19.947h-0.464v1.263h-0.313v-1.263h-0.458v-0.253h1.235v0.253zM30.391 20.554h-0.599v0.406h0.704v0.251h-1.017v-1.516h1.015v0.253h-0.702v0.361h0.6v0.245zM31.241 20.656h-0.249v0.555h-0.313v-1.516h0.564c0.179 0 0.317 0.040 0.415 0.12s0.146 0.193 0.146 0.338c0 0.103-0.022 0.19-0.068 0.26-0.050 0.073-0.119 0.129-0.2 0.163l-0.003 0.001 0.328 0.62v0.015h-0.335l-0.284-0.555zM30.992 20.402h0.252c0.078 0 0.139-0.020 0.182-0.059 0.040-0.039 0.065-0.094 0.065-0.154 0-0.004-0-0.008-0-0.012l0 0.001c0-0.071-0.020-0.128-0.061-0.169s-0.103-0.061-0.187-0.061h-0.251v0.455zM32.885 20.676v0.534h-0.313v-1.516h0.592c0.114 0 0.214 0.021 0.3 0.062s0.154 0.101 0.2 0.178c0.046 0.076 0.070 0.164 0.070 0.262 0 0.149-0.051 0.266-0.153 0.352s-0.242 0.128-0.422 0.128h-0.274zM32.885 20.423h0.279c0.083 0 0.146-0.019 0.188-0.058 0.044-0.039 0.066-0.094 0.066-0.166 0-0.003 0-0.007 0-0.011 0-0.065-0.025-0.125-0.066-0.169l0 0c-0.044-0.046-0.104-0.070-0.181-0.071h-0.287v0.476zM34.862 20.554h-0.6v0.406h0.704v0.251h-1.017v-1.516h1.015v0.253h-0.702v0.361h0.6v0.245zM36.313 19.947h-0.465v1.263h-0.313v-1.263h-0.458v-0.253h1.236v0.253zM37.404 20.554h-0.6v0.406h0.704v0.251h-1.017v-1.516h1.014v0.253h-0.702v0.361h0.6v0.245zM38.253 20.656h-0.249v0.555h-0.313v-1.516h0.564c0.179 0 0.317 0.040 0.415 0.12s0.146 0.193 0.146 0.338c0 0.103-0.023 0.19-0.068 0.26-0.050 0.073-0.119 0.129-0.2 0.163l-0.003 0.001 0.328 0.62v0.015h-0.335l-0.284-0.555zM38.004 20.402h0.252c0.078 0 0.139-0.020 0.182-0.059 0.040-0.039 0.065-0.094 0.065-0.154 0-0.004-0-0.008-0-0.012l0 0.001c0-0.071-0.021-0.128-0.062-0.169s-0.102-0.061-0.186-0.061h-0.251v0.455zM39.841 20.813c0-0.003 0-0.005 0-0.008 0-0.052-0.024-0.097-0.062-0.126l-0-0c-0.042-0.032-0.117-0.065-0.225-0.1-0.1-0.031-0.185-0.066-0.266-0.108l0.009 0.004c-0.172-0.093-0.258-0.218-0.258-0.376 0-0.082 0.023-0.155 0.069-0.219s0.113-0.115 0.199-0.151c0.087-0.036 0.184-0.054 0.292-0.054s0.205 0.020 0.29 0.059c0.085 0.039 0.15 0.094 0.197 0.166 0.047 0.071 0.071 0.153 0.071 0.244h-0.313c0-0.069-0.022-0.123-0.066-0.161s-0.105-0.058-0.184-0.058c-0.076 0-0.136 0.016-0.178 0.049-0.039 0.028-0.064 0.072-0.064 0.123 0 0.001 0 0.003 0 0.004v-0c0 0.049 0.025 0.091 0.074 0.124s0.123 0.065 0.22 0.094c0.178 0.053 0.307 0.12 0.389 0.199s0.122 0.178 0.122 0.295c0 0.132-0.050 0.235-0.149 0.309s-0.233 0.112-0.401 0.112c-0.117 0-0.223-0.021-0.319-0.064-0.090-0.038-0.164-0.099-0.219-0.174l-0.001-0.002c-0.047-0.070-0.075-0.156-0.075-0.249 0-0.003 0-0.007 0-0.010v0h0.314c0 0.167 0.1 0.251 0.3 0.251 0.074 0 0.132-0.015 0.174-0.044 0.038-0.027 0.063-0.072 0.063-0.122 0-0.002-0-0.004-0-0.006v0z"></path>
</svg>
